<?xml version="1.0" encoding="UTF-8"?>
<svg width="512" height="512" viewBox="0 0 512 512" fill="none" xmlns="http://www.w3.org/2000/svg">
  <!-- Blue tech spiral/neural network logo - transparent background -->
  
  <!-- Central spiral design with connected nodes -->
  <g transform="translate(256, 256)">
    <!-- Outer connections -->
    <circle cx="0" cy="-120" r="8" fill="#2563EB"/>
    <circle cx="60" cy="-103" r="8" fill="#3B82F6"/>
    <circle cx="103" cy="-60" r="8" fill="#2563EB"/>
    <circle cx="120" cy="0" r="8" fill="#1D4ED8"/>
    <circle cx="103" cy="60" r="8" fill="#2563EB"/>
    <circle cx="60" cy="103" r="8" fill="#3B82F6"/>
    <circle cx="0" cy="120" r="8" fill="#2563EB"/>
    <circle cx="-60" cy="103" r="8" fill="#3B82F6"/>
    <circle cx="-103" cy="60" r="8" fill="#2563EB"/>
    <circle cx="-120" cy="0" r="8" fill="#1D4ED8"/>
    <circle cx="-103" cy="-60" r="8" fill="#2563EB"/>
    <circle cx="-60" cy="-103" r="8" fill="#3B82F6"/>
    
    <!-- Middle ring -->
    <circle cx="0" cy="-70" r="6" fill="#60A5FA"/>
    <circle cx="49" cy="-49" r="6" fill="#3B82F6"/>
    <circle cx="70" cy="0" r="6" fill="#2563EB"/>
    <circle cx="49" cy="49" r="6" fill="#3B82F6"/>
    <circle cx="0" cy="70" r="6" fill="#60A5FA"/>
    <circle cx="-49" cy="49" r="6" fill="#3B82F6"/>
    <circle cx="-70" cy="0" r="6" fill="#2563EB"/>
    <circle cx="-49" cy="-49" r="6" fill="#3B82F6"/>
    
    <!-- Inner connections -->
    <circle cx="0" cy="-35" r="5" fill="#93C5FD"/>
    <circle cx="25" cy="-25" r="5" fill="#60A5FA"/>
    <circle cx="35" cy="0" r="5" fill="#3B82F6"/>
    <circle cx="25" cy="25" r="5" fill="#60A5FA"/>
    <circle cx="0" cy="35" r="5" fill="#93C5FD"/>
    <circle cx="-25" cy="25" r="5" fill="#60A5FA"/>
    <circle cx="-35" cy="0" r="5" fill="#3B82F6"/>
    <circle cx="-25" cy="-25" r="5" fill="#60A5FA"/>
    
    <!-- Center -->
    <circle cx="0" cy="0" r="12" fill="#1D4ED8"/>
    
    <!-- Connection lines -->
    <line x1="0" y1="-120" x2="0" y2="-70" stroke="#2563EB" stroke-width="2"/>
    <line x1="60" y1="-103" x2="49" y2="-49" stroke="#3B82F6" stroke-width="2"/>
    <line x1="103" y1="-60" x2="70" y2="0" stroke="#2563EB" stroke-width="2"/>
    <line x1="120" y1="0" x2="70" y2="0" stroke="#1D4ED8" stroke-width="2"/>
    <line x1="103" y1="60" x2="49" y2="49" stroke="#2563EB" stroke-width="2"/>
    <line x1="60" y1="103" x2="25" y2="70" stroke="#3B82F6" stroke-width="2"/>
    <line x1="0" y1="120" x2="0" y2="70" stroke="#2563EB" stroke-width="2"/>
    <line x1="-60" y1="103" x2="-25" y2="70" stroke="#3B82F6" stroke-width="2"/>
    <line x1="-103" y1="60" x2="-49" y2="49" stroke="#2563EB" stroke-width="2"/>
    <line x1="-120" y1="0" x2="-70" y2="0" stroke="#1D4ED8" stroke-width="2"/>
    <line x1="-103" y1="-60" x2="-49" y2="-49" stroke="#2563EB" stroke-width="2"/>
    <line x1="-60" y1="-103" x2="-25" y2="-70" stroke="#3B82F6" stroke-width="2"/>
    
    <!-- Middle to inner connections -->
    <line x1="0" y1="-70" x2="0" y2="-35" stroke="#60A5FA" stroke-width="2"/>
    <line x1="49" y1="-49" x2="25" y2="-25" stroke="#3B82F6" stroke-width="2"/>
    <line x1="70" y1="0" x2="35" y2="0" stroke="#2563EB" stroke-width="2"/>
    <line x1="49" y1="49" x2="25" y2="25" stroke="#3B82F6" stroke-width="2"/>
    <line x1="0" y1="70" x2="0" y2="35" stroke="#60A5FA" stroke-width="2"/>
    <line x1="-49" y1="49" x2="-25" y2="25" stroke="#3B82F6" stroke-width="2"/>
    <line x1="-70" y1="0" x2="-35" y2="0" stroke="#2563EB" stroke-width="2"/>
    <line x1="-49" y1="-49" x2="-25" y2="-25" stroke="#3B82F6" stroke-width="2"/>
  </g>
</svg>